<svg xmlns="http://www.w3.org/2000/svg" width="64" height="64" viewBox="0 0 64 64" fill="none" role="img" aria-labelledby="title"><title id="title">连接器 — 45° 立体</title><g transform="translate(0 6)"><g transform="matrix(.72 .36 -.72 .36 32 10)" stroke="currentColor" stroke-opacity=".55" stroke-width="3" stroke-linecap="round" stroke-linejoin="round"><path d="M15 33L15 39"/><path d="M21 33L21 39"/><path d="M27 33L27 39"/><path d="M33 33L33 39"/></g></g><defs><mask id="depth"><g fill="white"><g transform="translate(0 6)"><g transform="matrix(.72 .36 -.72 .36 32 10)"><rect x="10" y="15" width="28" height="18" rx="2"/></g></g><g transform="translate(0 5)"><g transform="matrix(.72 .36 -.72 .36 32 10)"><rect x="10" y="15" width="28" height="18" rx="2"/></g></g><g transform="translate(0 4)"><g transform="matrix(.72 .36 -.72 .36 32 10)"><rect x="10" y="15" width="28" height="18" rx="2"/></g></g><g transform="translate(0 3)"><g transform="matrix(.72 .36 -.72 .36 32 10)"><rect x="10" y="15" width="28" height="18" rx="2"/></g></g><g transform="translate(0 2)"><g transform="matrix(.72 .36 -.72 .36 32 10)"><rect x="10" y="15" width="28" height="18" rx="2"/></g></g><g transform="translate(0 1)"><g transform="matrix(.72 .36 -.72 .36 32 10)"><rect x="10" y="15" width="28" height="18" rx="2"/></g></g><g transform="translate(0 0)"><g transform="matrix(.72 .36 -.72 .36 32 10)"><rect x="10" y="15" width="28" height="18" rx="2"/></g></g></g></mask><mask id="face"><g transform="matrix(.72 .36 -.72 .36 32 10)"><g fill="white"><rect x="10" y="15" width="28" height="18" rx="2"/></g><g fill="none" stroke="black" stroke-width="1.8" stroke-linecap="round" stroke-linejoin="round"><rect x="14" y="19" width="20" height="10" rx="1"/><path d="M18 22L18 26"/><path d="M24 22L24 26"/><path d="M30 22L30 26"/></g></g></mask></defs><rect width="64" height="64" fill="currentColor" opacity=".48" mask="url(#depth)"/><rect width="64" height="64" fill="currentColor" mask="url(#face)"/></svg>
