<svg xmlns="http://www.w3.org/2000/svg" width="64" height="64" viewBox="0 0 64 64" fill="none" role="img" aria-labelledby="title"><title id="title">耗材 — 45° 立体</title><g transform="translate(0 6)"><g transform="matrix(.72 .36 -.72 .36 32 10)" stroke="currentColor" stroke-opacity=".55" stroke-width="3" stroke-linecap="round" stroke-linejoin="round"></g></g><defs><mask id="depth"><g fill="white"><g transform="translate(0 6)"><g transform="matrix(.72 .36 -.72 .36 32 10)"><circle cx="24" cy="24" r="15"/></g></g><g transform="translate(0 5)"><g transform="matrix(.72 .36 -.72 .36 32 10)"><circle cx="24" cy="24" r="15"/></g></g><g transform="translate(0 4)"><g transform="matrix(.72 .36 -.72 .36 32 10)"><circle cx="24" cy="24" r="15"/></g></g><g transform="translate(0 3)"><g transform="matrix(.72 .36 -.72 .36 32 10)"><circle cx="24" cy="24" r="15"/></g></g><g transform="translate(0 2)"><g transform="matrix(.72 .36 -.72 .36 32 10)"><circle cx="24" cy="24" r="15"/></g></g><g transform="translate(0 1)"><g transform="matrix(.72 .36 -.72 .36 32 10)"><circle cx="24" cy="24" r="15"/></g></g><g transform="translate(0 0)"><g transform="matrix(.72 .36 -.72 .36 32 10)"><circle cx="24" cy="24" r="15"/></g></g></g></mask><mask id="face"><g transform="matrix(.72 .36 -.72 .36 32 10)"><g fill="white"><circle cx="24" cy="24" r="15"/></g><g fill="none" stroke="black" stroke-width="1.8" stroke-linecap="round" stroke-linejoin="round"><circle cx="24" cy="24" r="7"/><circle cx="24" cy="13" r="2"/><circle cx="35" cy="24" r="2"/><circle cx="24" cy="35" r="2"/><circle cx="13" cy="24" r="2"/></g></g></mask></defs><rect width="64" height="64" fill="currentColor" opacity=".48" mask="url(#depth)"/><rect width="64" height="64" fill="currentColor" mask="url(#face)"/></svg>
