<svg xmlns="http://www.w3.org/2000/svg" width="64" height="64" viewBox="0 0 64 64" fill="none" role="img" aria-labelledby="title"><title id="title">隔离器件 — 45° 立体</title><g transform="translate(0 6)"><g transform="matrix(.72 .36 -.72 .36 32 10)" stroke="currentColor" stroke-opacity=".55" stroke-width="3" stroke-linecap="round" stroke-linejoin="round"><path d="M10 17H16"/><path d="M32 17H38"/><path d="M10 24H16"/><path d="M32 24H38"/><path d="M10 31H16"/><path d="M32 31H38"/></g></g><defs><mask id="depth"><g fill="white"><g transform="translate(0 6)"><g transform="matrix(.72 .36 -.72 .36 32 10)"><rect x="13" y="14" width="22" height="20" rx="2"/></g></g><g transform="translate(0 5)"><g transform="matrix(.72 .36 -.72 .36 32 10)"><rect x="13" y="14" width="22" height="20" rx="2"/></g></g><g transform="translate(0 4)"><g transform="matrix(.72 .36 -.72 .36 32 10)"><rect x="13" y="14" width="22" height="20" rx="2"/></g></g><g transform="translate(0 3)"><g transform="matrix(.72 .36 -.72 .36 32 10)"><rect x="13" y="14" width="22" height="20" rx="2"/></g></g><g transform="translate(0 2)"><g transform="matrix(.72 .36 -.72 .36 32 10)"><rect x="13" y="14" width="22" height="20" rx="2"/></g></g><g transform="translate(0 1)"><g transform="matrix(.72 .36 -.72 .36 32 10)"><rect x="13" y="14" width="22" height="20" rx="2"/></g></g><g transform="translate(0 0)"><g transform="matrix(.72 .36 -.72 .36 32 10)"><rect x="13" y="14" width="22" height="20" rx="2"/></g></g></g></mask><mask id="face"><g transform="matrix(.72 .36 -.72 .36 32 10)"><g fill="white"><rect x="13" y="14" width="22" height="20" rx="2"/></g><g fill="none" stroke="black" stroke-width="1.8" stroke-linecap="round" stroke-linejoin="round"><path d="M24 17L24 31"/><path d="M17 21L21 24L17 27M31 21L27 24L31 27"/></g></g></mask></defs><rect width="64" height="64" fill="currentColor" opacity=".48" mask="url(#depth)"/><rect width="64" height="64" fill="currentColor" mask="url(#face)"/></svg>
