<svg xmlns="http://www.w3.org/2000/svg" width="64" height="64" viewBox="0 0 64 64" fill="none" role="img" aria-labelledby="title"><title id="title">板级电路保护 — 45° 立体</title><g transform="translate(0 6)"><g transform="matrix(.72 .36 -.72 .36 32 10)" stroke="currentColor" stroke-opacity=".55" stroke-width="3" stroke-linecap="round" stroke-linejoin="round"><path d="M18 8L18 14"/><path d="M18 34L18 40"/><path d="M8 18H14"/><path d="M34 18H40"/><path d="M24 8L24 14"/><path d="M24 34L24 40"/><path d="M8 24H14"/><path d="M34 24H40"/><path d="M30 8L30 14"/><path d="M30 34L30 40"/><path d="M8 30H14"/><path d="M34 30H40"/></g></g><defs><mask id="depth"><g fill="white"><g transform="translate(0 6)"><g transform="matrix(.72 .36 -.72 .36 32 10)"><rect x="14" y="14" width="20" height="20" rx="2"/></g></g><g transform="translate(0 5)"><g transform="matrix(.72 .36 -.72 .36 32 10)"><rect x="14" y="14" width="20" height="20" rx="2"/></g></g><g transform="translate(0 4)"><g transform="matrix(.72 .36 -.72 .36 32 10)"><rect x="14" y="14" width="20" height="20" rx="2"/></g></g><g transform="translate(0 3)"><g transform="matrix(.72 .36 -.72 .36 32 10)"><rect x="14" y="14" width="20" height="20" rx="2"/></g></g><g transform="translate(0 2)"><g transform="matrix(.72 .36 -.72 .36 32 10)"><rect x="14" y="14" width="20" height="20" rx="2"/></g></g><g transform="translate(0 1)"><g transform="matrix(.72 .36 -.72 .36 32 10)"><rect x="14" y="14" width="20" height="20" rx="2"/></g></g><g transform="translate(0 0)"><g transform="matrix(.72 .36 -.72 .36 32 10)"><rect x="14" y="14" width="20" height="20" rx="2"/></g></g></g></mask><mask id="face"><g transform="matrix(.72 .36 -.72 .36 32 10)"><g fill="white"><rect x="14" y="14" width="20" height="20" rx="2"/></g><g fill="none" stroke="black" stroke-width="1.8" stroke-linecap="round" stroke-linejoin="round"><path d="M24 18L30 21V25Q30 29 24 32Q18 29 18 25V21Z"/><path d="M21 25L23 27L27 23"/></g></g></mask></defs><rect width="64" height="64" fill="currentColor" opacity=".48" mask="url(#depth)"/><rect width="64" height="64" fill="currentColor" mask="url(#face)"/></svg>
