<svg xmlns="http://www.w3.org/2000/svg" width="64" height="64" viewBox="0 0 64 64" fill="none" role="img" aria-labelledby="title"><title id="title">振荡器 — 45° 立体</title><g transform="translate(0 6)"><g transform="matrix(.72 .36 -.72 .36 32 10)" stroke="currentColor" stroke-opacity=".55" stroke-width="3" stroke-linecap="round" stroke-linejoin="round"><path d="M15 8L15 13"/><path d="M33 8L33 13"/><path d="M15 35L15 40"/><path d="M33 35L33 40"/></g></g><defs><mask id="depth"><g fill="white"><g transform="translate(0 6)"><g transform="matrix(.72 .36 -.72 .36 32 10)"><rect x="11" y="13" width="26" height="22" rx="4"/></g></g><g transform="translate(0 5)"><g transform="matrix(.72 .36 -.72 .36 32 10)"><rect x="11" y="13" width="26" height="22" rx="4"/></g></g><g transform="translate(0 4)"><g transform="matrix(.72 .36 -.72 .36 32 10)"><rect x="11" y="13" width="26" height="22" rx="4"/></g></g><g transform="translate(0 3)"><g transform="matrix(.72 .36 -.72 .36 32 10)"><rect x="11" y="13" width="26" height="22" rx="4"/></g></g><g transform="translate(0 2)"><g transform="matrix(.72 .36 -.72 .36 32 10)"><rect x="11" y="13" width="26" height="22" rx="4"/></g></g><g transform="translate(0 1)"><g transform="matrix(.72 .36 -.72 .36 32 10)"><rect x="11" y="13" width="26" height="22" rx="4"/></g></g><g transform="translate(0 0)"><g transform="matrix(.72 .36 -.72 .36 32 10)"><rect x="11" y="13" width="26" height="22" rx="4"/></g></g></g></mask><mask id="face"><g transform="matrix(.72 .36 -.72 .36 32 10)"><g fill="white"><rect x="11" y="13" width="26" height="22" rx="4"/></g><g fill="none" stroke="black" stroke-width="1.8" stroke-linecap="round" stroke-linejoin="round"><path d="M16 27V21H22V27H28V21H32"/><circle cx="15" cy="17" r="1"/></g></g></mask></defs><rect width="64" height="64" fill="currentColor" opacity=".48" mask="url(#depth)"/><rect width="64" height="64" fill="currentColor" mask="url(#face)"/></svg>
